<?xml version="1.0" standalone="no"?><!DOCTYPE svg PUBLIC "-//W3C//DTD SVG 1.1//EN" "http://www.w3.org/Graphics/SVG/1.1/DTD/svg11.dtd"><svg t="1539852106114" class="icon" style="" viewBox="0 0 1024 1024" version="1.1" xmlns="http://www.w3.org/2000/svg" p-id="2544" xmlns:xlink="http://www.w3.org/1999/xlink" width="200" height="200"><defs><style type="text/css"></style></defs><path d="M512.05720164 543.2892978c-69.78600246 0-126.70163561-53.36913138-126.7016356-118.80780909s56.91563316-118.80780909 126.7016356-118.80780908c69.78600246 0 126.70163561 53.36913138 126.70163561 118.80780908s-56.8584315 118.80780909-126.70163561 118.80780909z m0-192.76953135c-43.47324741 0-78.93826508 33.17695197-78.93826507 73.96172226s35.46501764 73.96172227 78.93826507 73.96172229c43.47324741 0 78.93826508-33.17695197 78.93826508-73.96172229s-35.46501764-73.96172227-78.93826508-73.96172226z" fill="#515151" p-id="2545"></path><path d="M510.62716061 335.24692819c-13.38518409 0-23.91028607-9.83868231-23.91028608-22.36584175v-34.95020288c0-12.5843611 10.52510198-22.42304342 23.91028608-22.42304341 13.38518409 0 23.91028607 9.83868231 23.91028609 22.42304341v34.89300124c0 12.5843611-10.52510198 22.48024506-23.91028609 22.48024506z m-84.14361443 33.176952a25.11152054 25.11152054 0 0 1-17.21769407-6.69259203l-25.79794024-24.65390741a21.62222043 21.62222043 0 0 1 0.45761313-31.80411262 25.28312547 25.28312547 0 0 1 33.92057333 0.4004115l25.85514188 24.65390741c9.09506097 8.98065769 9.09506097 22.88065653-0.51481476 31.86131423a25.68353697 25.68353697 0 0 1-16.70287927 6.29218056z m-33.97777498 79.39587821h-36.78065541c-13.38518409 0-23.91028607-9.89588395-23.91028607-22.42304342 0-12.5843611 10.52510198-22.42304342 23.91028607-22.42304341h36.78065541c13.38518409 0 23.91028607 9.83868231 23.9102861 22.42304341 0 12.5843611-10.52510198 22.42304342-23.9102861 22.42304342z m9.15226261 103.53497084a23.16666475 23.16666475 0 0 1-16.7600809-6.74979367 21.22180895 21.22180895 0 0 1 0-31.80411259l26.77036815-25.11152057a24.76831071 24.76831071 0 0 1 33.92057332 0c9.55267412 8.98065769 9.55267412 22.88065653 0 31.86131424l-26.77036815 25.05431892a25.11152054 25.11152054 0 0 1-17.16049242 6.74979367z m111.37159575 42.15760969c-13.38518409 0-23.91028607-9.89588395-23.91028609-22.42304341v-34.95020288c0-12.5843611 10.52510198-22.42304342 23.91028609-22.42304339 13.38518409 0 23.91028607 9.83868231 23.91028607 22.42304339v34.89300125c0 12.5843611-10.52510198 22.48024506-23.91028607 22.48024504z m109.9987563-43.47324743a23.16666475 23.16666475 0 0 1-16.76008091-6.7497937l-26.31275502-24.6539074a21.22180895 21.22180895 0 0 1 0-31.86131425 24.76831071 24.76831071 0 0 1 33.97777497 0l26.31275503 24.65390742c9.55267412 8.98065769 9.55267412 22.88065653 0 31.86131423a25.11152054 25.11152054 0 0 1-17.21769407 6.69259205z m45.41810325-104.04978563h-37.29547017c-13.38518409 0-23.91028607-9.83868231-23.91028609-22.42304341 0-12.52715946 10.52510198-22.36584176 23.91028609-22.36584178h37.29547017c13.38518409 0 23.91028607 9.83868231 23.91028609 22.36584178 0 12.5843611-10.52510198 22.42304342-23.91028609 22.42304341z m-73.21810095-78.42345031a23.16666475 23.16666475 0 0 1-16.70287925-6.74979366 21.22180895 21.22180895 0 0 1 0-31.8041126l26.77036815-25.11152055a24.76831071 24.76831071 0 0 1 33.97777496 0c9.55267412 8.98065769 9.55267412 22.88065653 0 31.80411258l-26.77036815 25.16872219a25.11152054 25.11152054 0 0 1-17.21769405 6.69259204z" fill="#515151" p-id="2546"></path><path d="M944.78761852 735.14360291H78.86917164c-13.38518409 0-23.91028607-9.83868231-23.91028608-22.42304339V134.46916704c0-12.52715946 10.52510198-22.36584176 23.91028608-22.36584176h865.91844688c13.38518409 0 23.91028607 9.83868231 23.91028609 22.42304341v578.30859412c0 12.52715946-10.52510198 22.36584176-23.91028609 22.36584177z m-842.00816079-44.84608678h818.09787472V156.89221045H102.77945773v533.40530568z m606.79501152 199.97693817H314.0823209c-13.38518409 0-23.85308446-9.89588395-23.85308444-22.4230434 0-12.5843611 10.46790037-22.42304342 23.85308444-22.42304343h395.49214835c13.38518409 0 23.85308446 9.83868231 23.85308444 22.42304343 0 12.5843611-10.46790037 22.42304342-23.85308444 22.4230434z" fill="#515151" p-id="2547"></path><path d="M512.05720164 858.41314007c-13.38518409 0-23.91028607-9.83868231-23.9102861-22.42304344v-109.82715139c0-12.5843611 10.52510198-22.42304342 23.9102861-22.42304342 13.38518409 0 23.91028607 9.89588395 23.91028608 22.42304342v109.82715139c0 12.5843611-10.52510198 22.42304342-23.91028608 22.42304344z" fill="#515151" p-id="2548"></path></svg>